<svg id="Layer_1" data-name="Layer 1" xmlns="http://www.w3.org/2000/svg" viewBox="0 0 120.15 138.73"><defs><style>.cls-1{fill:#f4ece9;stroke:#c1724f;stroke-miterlimit:10;stroke-width:0.55px;}.cls-2{fill:#d19476;}.cls-3{fill:#2c6459;}.cls-4{fill:#de6a35;}.cls-5{fill:#dd4b13;}.cls-6{fill:#1a4a41;}</style></defs><polygon class="cls-1" points="119.87 103.89 60.07 138.42 0.27 103.89 0.27 34.84 60.07 0.32 119.87 34.84 119.87 103.89"/><polygon class="cls-2" points="80.79 84.3 67.98 84.38 58.28 76.02 61.39 67.58 74.19 67.49 83.89 75.86 80.79 84.3"/><polygon class="cls-2" points="57.41 74.99 44.6 75.07 34.9 66.71 38.01 58.27 50.81 58.19 60.51 66.55 57.41 74.99"/><polygon class="cls-2" points="33.01 65.11 20.2 65.19 10.5 56.83 13.61 48.39 26.41 48.31 36.11 56.67 33.01 65.11"/><polygon class="cls-2" points="62.68 94.24 49.88 94.33 40.17 85.96 43.28 77.52 56.09 77.44 65.79 85.8 62.68 94.24"/><polygon class="cls-2" points="37.75 84.09 24.94 84.17 15.24 75.81 18.35 67.37 31.16 67.29 40.86 75.65 37.75 84.09"/><polygon class="cls-2" points="87.71 103.09 74.9 103.18 65.2 94.81 68.31 86.37 81.12 86.29 90.82 94.65 87.71 103.09"/><polygon class="cls-3" points="44.33 104.76 31.52 104.84 21.2 94.82 24.93 88.03 37.73 87.95 47.44 96.31 44.33 104.76"/><polygon class="cls-2" points="69.77 113.37 56.97 113.45 47.27 105.09 50.37 96.65 63.18 96.57 72.88 104.93 69.77 113.37"/><polygon class="cls-2" points="51.9 130.51 40.87 124.13 27.57 116.48 32.12 107.48 44.18 107.02 55.25 117.19 51.9 130.51"/><polygon class="cls-2" points="93.49 116.68 83.59 121.88 72.79 112.96 75.56 105.43 87.65 105.6 97.79 113.99 93.49 116.68"/><polygon class="cls-4" points="106.35 94.24 93.54 94.33 83.84 85.96 86.95 77.52 99.75 77.44 109.45 85.8 106.35 94.24"/><polygon class="cls-2" points="108.82 108.21 100.39 112.42 89.94 103.58 92.83 95.72 105.04 95.75 115.16 104.31 108.82 108.21"/><polygon class="cls-2" points="72.34 129.11 61.19 135.07 54.55 131.34 58.08 117.9 70.88 115.7 80.45 124.14 72.34 129.11"/><polygon class="cls-2" points="25.41 115.43 19.5 111.66 2.09 102.82 3.89 96.96 18.91 96.4 29.97 106.56 25.41 115.43"/><polygon class="cls-2" points="19.14 93.27 4.3 93.99 2.4 90.99 2.24 78.34 13.45 78.27 23.15 86.64 19.14 93.27"/><path class="cls-5" d="M88.63,63.73c0,5.76,7.85,15.26,9.5,17.19a.38.38,0,0,0,.59,0c1.64-2,9.51-11.82,9.51-17.18a9.81,9.81,0,1,0-19.6,0Zm2.42-.41A7.38,7.38,0,1,1,98.43,71,7.51,7.51,0,0,1,91.05,63.32Z"/><path class="cls-5" d="M98.43,68.48a5.05,5.05,0,1,0-4.89-5.05A5,5,0,0,0,98.43,68.48Z"/><path class="cls-6" d="M21.06,70c0,7.43,10.47,19.69,12.67,22.18a.52.52,0,0,0,.79,0C36.7,89.61,47.2,76.91,47.2,70a13.07,13.07,0,0,0-26.14,0Zm3.23-.53a9.84,9.84,0,1,1,9.84,9.84A9.83,9.83,0,0,1,24.29,69.46Z"/><path class="cls-6" d="M34.13,76.12a6.52,6.52,0,1,0-6.52-6.52A6.52,6.52,0,0,0,34.13,76.12Z"/><path class="cls-6" d="M15.58,43.49a4.27,4.27,0,0,1-3.06-.86,4.09,4.09,0,0,1-.87-3A5.27,5.27,0,0,1,12.78,36a4.29,4.29,0,0,1,3.39-1.29,4.32,4.32,0,0,1,1.64.22.78.78,0,0,1,.47.74,2,2,0,0,1-.38,1.19,5,5,0,0,0-2.14-.69,1.33,1.33,0,0,0-1.21.62,4.26,4.26,0,0,0-.4,2.18,5.15,5.15,0,0,0,.39,2.29,1.42,1.42,0,0,0,1.39.75,5.08,5.08,0,0,0,2.12-.65,1.8,1.8,0,0,1,.33,1q0,.54-.84.81A6.42,6.42,0,0,1,15.58,43.49Z"/><path class="cls-6" d="M23.44,34.74a3.13,3.13,0,0,1,2.39.8,3.58,3.58,0,0,1,.75,2.52,1.85,1.85,0,0,1-.32,1.21,1.87,1.87,0,0,1-1.38.36H21.93a3.1,3.1,0,0,0,.47,1.74A1.79,1.79,0,0,0,24,42a4.47,4.47,0,0,0,2.25-.67,1.35,1.35,0,0,1,.41.93c0,.45-.31.76-.93.94a8.3,8.3,0,0,1-2.18.26,4.47,4.47,0,0,1-3.13-.92,4.08,4.08,0,0,1-1-3.06A5.08,5.08,0,0,1,20.5,36,3.7,3.7,0,0,1,23.44,34.74Zm-.31,1.46a1,1,0,0,0-.9.51,3.67,3.67,0,0,0-.31,1.76h.42c.58,0,1,0,1.34,0s.49-.1.54-.19a.91.91,0,0,0,.08-.43A1.93,1.93,0,0,0,24,36.62,1,1,0,0,0,23.13,36.2Z"/><path class="cls-6" d="M28.75,39.26q0-3.82,0-4.8a7.51,7.51,0,0,0-.12-1.34.65.65,0,0,0-.3-.46,1.35,1.35,0,0,0-.57-.11,1.89,1.89,0,0,1-.14-.69c0-.24.08-.39.25-.45a7.16,7.16,0,0,1,1.59-.1,6.79,6.79,0,0,1,1.15.07c.21.05.32.14.35.27a2.51,2.51,0,0,1,.05.55v6.48c0,1.61,0,2.77,0,3.49h1a1.41,1.41,0,0,1,.13.62.59.59,0,0,1-.11.42.64.64,0,0,1-.45.12H27.73a1.92,1.92,0,0,1-.14-.67.57.57,0,0,1,.11-.38.5.5,0,0,1,.36-.11h.65C28.74,41.45,28.75,40.48,28.75,39.26Z"/><path class="cls-6" d="M33.93,39.26q0-3.82,0-4.8a7.51,7.51,0,0,0-.12-1.34.63.63,0,0,0-.31-.46,1.27,1.27,0,0,0-.56-.11,1.72,1.72,0,0,1-.15-.69.43.43,0,0,1,.25-.45,7.22,7.22,0,0,1,1.6-.1,6.87,6.87,0,0,1,1.15.07c.2.05.32.14.35.27a2.62,2.62,0,0,1,0,.55v6.48c0,1.61,0,2.77,0,3.49h1a1.41,1.41,0,0,1,.14.62.59.59,0,0,1-.12.42.59.59,0,0,1-.44.12H32.91a1.74,1.74,0,0,1-.15-.67.52.52,0,0,1,.12-.38.49.49,0,0,1,.35-.11h.65C33.91,41.45,33.93,40.48,33.93,39.26Z"/><path class="cls-6" d="M44.67,43.33h-6A3.14,3.14,0,0,1,38.44,42a3.42,3.42,0,0,1,1-2.4A30.44,30.44,0,0,1,42,37.24c1.09-.89,1.63-1.7,1.63-2.43a1.49,1.49,0,0,0-.52-1.28,2.08,2.08,0,0,0-1.31-.4,5.32,5.32,0,0,0-1.1.11,4.79,4.79,0,0,1-.33.59,3.83,3.83,0,0,1-.52.16.79.79,0,0,1-.7-.08,1.92,1.92,0,0,1-.44-.7,2.32,2.32,0,0,1-.21-.84.32.32,0,0,1,.12-.29,6.85,6.85,0,0,1,1.2-.25,15.77,15.77,0,0,1,2.56-.18,5.58,5.58,0,0,1,2.91.65,2.43,2.43,0,0,1,1.06,2.28,3.94,3.94,0,0,1-.54,2A9.48,9.48,0,0,1,43.26,39c-1.33,1-2,2-1.9,3h.27A9.13,9.13,0,0,0,45.89,41a2.63,2.63,0,0,1,.43,1.36.81.81,0,0,1-.32.75A2.78,2.78,0,0,1,44.67,43.33Z"/><path class="cls-6" d="M49.29,39.26q0-3.82,0-4.8a10.14,10.14,0,0,0-.12-1.34.63.63,0,0,0-.31-.46,1.27,1.27,0,0,0-.56-.11,1.72,1.72,0,0,1-.15-.69.43.43,0,0,1,.25-.45,7.22,7.22,0,0,1,1.6-.1,6.64,6.64,0,0,1,1.14.07q.31.07.36.27a2.62,2.62,0,0,1,0,.55v6.48c0,1.61,0,2.77,0,3.49h1a1.41,1.41,0,0,1,.14.62.59.59,0,0,1-.12.42.59.59,0,0,1-.44.12H48.27a1.74,1.74,0,0,1-.15-.67.57.57,0,0,1,.11-.38.53.53,0,0,1,.36-.11h.65C49.27,41.45,49.29,40.48,49.29,39.26Z"/><path class="cls-6" d="M57.06,43.49a3.42,3.42,0,0,1-2.67-1,4.1,4.1,0,0,1-.9-2.86A5.42,5.42,0,0,1,54.58,36a3.76,3.76,0,0,1,3.05-1.29,3.4,3.4,0,0,1,2.67,1,4.1,4.1,0,0,1,.9,2.86,5.49,5.49,0,0,1-1.09,3.62A3.76,3.76,0,0,1,57.06,43.49ZM57.43,42a1,1,0,0,0,1-.55,4.69,4.69,0,0,0,.32-2.11,6.18,6.18,0,0,0-.35-2.44,1.14,1.14,0,0,0-1.09-.74,1,1,0,0,0-.95.55A4.73,4.73,0,0,0,56,38.86a6.21,6.21,0,0,0,.34,2.44A1.14,1.14,0,0,0,57.43,42Z"/><path class="cls-6" d="M66.21,43.49a4.27,4.27,0,0,1-3.06-.86,4.09,4.09,0,0,1-.87-3A5.28,5.28,0,0,1,63.42,36a4.26,4.26,0,0,1,3.39-1.29,4.35,4.35,0,0,1,1.64.22.79.79,0,0,1,.47.74,2,2,0,0,1-.39,1.19,4.92,4.92,0,0,0-2.14-.69,1.34,1.34,0,0,0-1.21.62A4.39,4.39,0,0,0,64.79,39a5.32,5.32,0,0,0,.38,2.29,1.43,1.43,0,0,0,1.4.75,5,5,0,0,0,2.11-.65,1.8,1.8,0,0,1,.33,1q0,.54-.84.81A6.38,6.38,0,0,1,66.21,43.49Z"/><path class="cls-6" d="M75.06,42.68a9.45,9.45,0,0,1-1.35.57,4.82,4.82,0,0,1-1.44.24,2.21,2.21,0,0,1-1.68-.56,2.24,2.24,0,0,1-.53-1.59A2.46,2.46,0,0,1,71,39.23a4.82,4.82,0,0,1,2.89-.69h.87a3.74,3.74,0,0,0-.41-1.78,1.14,1.14,0,0,0-1-.47,3.35,3.35,0,0,0-.79.1,2.6,2.6,0,0,1-.33.59,3.89,3.89,0,0,1-.54.15.74.74,0,0,1-.7-.08,2,2,0,0,1-.42-.68,2.15,2.15,0,0,1-.21-.83.38.38,0,0,1,.16-.32A3.94,3.94,0,0,1,71.7,35a17.29,17.29,0,0,1,2.21-.13,4,4,0,0,1,2.19.51,2.2,2.2,0,0,1,.79,2v2.23A9.85,9.85,0,0,0,77,41.84c.1.28.28.39.53.33a.9.9,0,0,1,.12.46.62.62,0,0,1-.42.58,2.74,2.74,0,0,1-1.14.2,1.34,1.34,0,0,1-.5-.08A2.33,2.33,0,0,1,75.06,42.68Zm-.32-2.8a5.09,5.09,0,0,0-1.16-.13,1.49,1.49,0,0,0-1,.24,1.1,1.1,0,0,0-.29.89,1.22,1.22,0,0,0,.29.87,1.08,1.08,0,0,0,.81.29,1.46,1.46,0,0,0,.76-.2.91.91,0,0,0,.43-.55,3.38,3.38,0,0,0,.11-.93Z"/><path class="cls-6" d="M79.13,35h.55l.78-2.54a3.63,3.63,0,0,1,.75.33,1.58,1.58,0,0,1,.52.46,2.82,2.82,0,0,1,.18,1.29V35h2.68a1.87,1.87,0,0,1,.13.71.67.67,0,0,1-.11.44.64.64,0,0,1-.43.1H81.91v3.33a5.75,5.75,0,0,0,.23,2,.81.81,0,0,0,.76.54,2.6,2.6,0,0,0,1.31-.4,1.3,1.3,0,0,1,.23.75.76.76,0,0,1-.57.77,5.79,5.79,0,0,1-1.76.2,2.57,2.57,0,0,1-1.86-.56,3,3,0,0,1-.56-2.15V39.23c0-.93,0-1.92-.08-3H78.8a2.06,2.06,0,0,1-.14-.73.6.6,0,0,1,.11-.4A.46.46,0,0,1,79.13,35Z"/><path class="cls-6" d="M88.84,42.17h.94a1.41,1.41,0,0,1,.13.62.45.45,0,0,1-.56.54h-3.8a1.89,1.89,0,0,1-.13-.67.52.52,0,0,1,.11-.38.49.49,0,0,1,.35-.11h.65c0-.72,0-1.49,0-2.3,0-1.24,0-2.07,0-2.47a3,3,0,0,0-.12-.9.5.5,0,0,0-.29-.35,1.75,1.75,0,0,0-.58-.07,1.09,1.09,0,0,1-.13-.55c0-.32.12-.51.36-.58a5.92,5.92,0,0,1,1.48-.11,7,7,0,0,1,1.14.06c.21.05.32.14.35.27a2.57,2.57,0,0,1,0,.55v4.15C88.8,40.68,88.82,41.45,88.84,42.17ZM87.4,33.74a1.51,1.51,0,0,1-1-.29,1.06,1.06,0,0,1-.32-.82,1.18,1.18,0,0,1,.4-.92,1.68,1.68,0,0,1,1.15-.35,1.55,1.55,0,0,1,1.08.3,1.09,1.09,0,0,1,.31.81,1.19,1.19,0,0,1-.38.91A1.72,1.72,0,0,1,87.4,33.74Z"/><path class="cls-6" d="M94.34,43.49a3.42,3.42,0,0,1-2.67-1,4.1,4.1,0,0,1-.9-2.86A5.47,5.47,0,0,1,91.86,36a3.8,3.8,0,0,1,3.06-1.29,3.43,3.43,0,0,1,2.67,1,4.15,4.15,0,0,1,.89,2.86,5.49,5.49,0,0,1-1.08,3.62A3.78,3.78,0,0,1,94.34,43.49ZM94.71,42a1,1,0,0,0,1-.55A4.73,4.73,0,0,0,96,39.38a6.21,6.21,0,0,0-.34-2.44,1.15,1.15,0,0,0-1.09-.74,1,1,0,0,0-1,.55,4.69,4.69,0,0,0-.32,2.11,6.18,6.18,0,0,0,.35,2.44A1.14,1.14,0,0,0,94.71,42Z"/><path class="cls-6" d="M102.39,35.81a6.22,6.22,0,0,1,1.66-.82,4.75,4.75,0,0,1,1.33-.24,2.31,2.31,0,0,1,1.66.53,3,3,0,0,1,.54,2.1,32,32,0,0,0,.14,4.47.58.58,0,0,0,.62.32,1.68,1.68,0,0,1,.12.63.44.44,0,0,1-.19.42,1.56,1.56,0,0,1-.7.11c-.86,0-1.4,0-1.63,0a.55.55,0,0,1-.46-.27,1.63,1.63,0,0,1-.13-.78v-3a5.81,5.81,0,0,0-.3-2.3,1,1,0,0,0-1-.59,1.18,1.18,0,0,0-.89.35,2.35,2.35,0,0,0-.32,1.47v1.69c0,.71,0,1.47,0,2.3h.94a1.41,1.41,0,0,1,.14.62.59.59,0,0,1-.12.42.61.61,0,0,1-.45.12H99.71a1.71,1.71,0,0,1-.14-.67.52.52,0,0,1,.11-.38.49.49,0,0,1,.35-.11h.58c0-.93,0-1.88,0-2.87a9.75,9.75,0,0,0-.21-2.79.74.74,0,0,0-.73-.43,1.66,1.66,0,0,1-.14-.68.38.38,0,0,1,.21-.39,16.29,16.29,0,0,1,2.61-.17A5.14,5.14,0,0,1,102.39,35.81Z"/></svg>